<?xml version="1.0" standalone="no"?>
<svg id="SvgjsSvg1001" width="600" height="600" xmlns="http://www.w3.org/2000/svg" version="1.1" xmlns:xlink="http://www.w3.org/1999/xlink" xmlns:svgjs="http://svgjs.com/svgjs" class="svg-paper" viewBox="0 0 600 600"><title id="SvgjsTitle8223">x=sqrt(x*x + y*y)|y=max(x,cos(sqrt(x*x + y*y)))|dTest=0.2|sd=0.5|sm=0.5|ts=1 | generated with FlowLines</title><rect id="SvgjsRect8224" width="600" height="600" fill="#1282a6"/><g id="SvgjsG8225"><polyline id="SvgjsPolyline8226" points="0,521.08 59.37,512.41 119.26,509.56 179.01,514.63 238.15,524.68 297.6,532.16 357.03,525.17 413.28,504.6 464.94,474.21 512.53,437.71 557.32,397.79" fill="none" stroke="#aca7fb" stroke-width="1"/><polyline id="SvgjsPolyline8227" points="4.46,548.8 63.74,539.58 123.46,534.1 183.42,535.45 302.74,547.45 362.09,539.67 418.39,519.21 470.38,489.37 518.44,453.48 563.66,414.06" fill="none" stroke="#aca7fb" stroke-width="1"/><polyline id="SvgjsPolyline8228" points="56.26,484.51 116.2,484.75 175.53,493.51 234.01,506.88 293.16,516.26 352.64,509.97 408.76,489.11 459.98,457.97 507,420.73 551.31,380.28 594.26,338.39" fill="none" stroke="#aca7fb" stroke-width="1"/><polyline id="SvgjsPolyline8229" points="8.72,576.56 68.01,567.37 127.5,559.69 187.43,557.28 307.23,563.09 366.53,554.78 422.92,534.54 475.27,505.31 523.82,470.1 569.51,431.22" fill="none" stroke="#aca7fb" stroke-width="1"/><polyline id="SvgjsPolyline8230" points="54.21,456.5 114.04,459.97 172.77,472.07 230.56,488.21 289.35,499.48 348.86,493.79 404.76,472.38 455.37,440.27 501.69,402.17 545.49,361.16 588.18,319.01" fill="none" stroke="#aca7fb" stroke-width="1"/><polyline id="SvgjsPolyline8231" points="72.37,595.11 131.68,586.07 191.39,580.32 251.36,578.73 311.35,578.78 370.61,570.08 427.1,550.11 479.79,521.51 528.82,486.96 574.98,448.65" fill="none" stroke="#aca7fb" stroke-width="1"/><polyline id="SvgjsPolyline8232" points="53.38,428.43 112.94,435.04 171.03,449.96 228.22,468.11 286.62,481.16 346.12,475.8 401.59,453.36 451.31,419.9 496.76,380.76 540.02,339.18 582.52,296.83" fill="none" stroke="#aca7fb" stroke-width="1"/><polyline id="SvgjsPolyline8233" points="377.49,597.3 434.17,577.81 487.4,550.23 537.22,516.83 584.2,479.52" fill="none" stroke="#aca7fb" stroke-width="1"/><polyline id="SvgjsPolyline8234" points="53.86,400.36 113.02,409.83 170.53,426.88 227.43,445.94 285.45,460.55 344.86,454.96 399.52,430.67 447.92,395.32 492.31,354.96 577.51,270.46" fill="none" stroke="#aca7fb" stroke-width="1"/><polyline id="SvgjsPolyline8235" points="501.84,574.31 551.93,541.32 599.33,504.55" fill="none" stroke="#aca7fb" stroke-width="1"/><polyline id="SvgjsPolyline8236" points="55.62,372.33 114.35,384.25 228.61,420.86 286.64,435.59 345.77,428.55 398.76,400.86 445.12,362.83 488.3,321.18 573.49,236.67" fill="none" stroke="#aca7fb" stroke-width="1"/><polyline id="SvgjsPolyline8237" points="516.16,598.47 566.49,565.84" fill="none" stroke="#aca7fb" stroke-width="1"/><polyline id="SvgjsPolyline8238" points="0.25,330.58 116.88,358.24 173.87,376.99 232.01,391.62 291.72,396.87 349.66,383.94 398.17,348.93 527.09,223.33 570.98,182.43" fill="none" stroke="#aca7fb" stroke-width="1"/><polyline id="SvgjsPolyline8239" points="337.23,416.97 428.1,338.73 513.4,254.33 556.63,212.73" fill="none" stroke="#aca7fb" stroke-width="1"/><polyline id="SvgjsPolyline8240" points="1.95,358.61 61.81,360.56 120.17,374.2 177.16,392.96 234.76,409.69 293.53,421.21 351.98,410.27 402.83,378.76 447.52,338.76 575.85,212.56" fill="none" stroke="#aca7fb" stroke-width="1"/><polyline id="SvgjsPolyline8241" points="4.53,301.42 120.5,331.79 177.65,350.05 236.91,356.74 286.54,327.68 301.71,270.92 348.32,234.81 398.29,201.63 446.85,166.39 590.34,57.72" fill="none" stroke="#aca7fb" stroke-width="1"/><polyline id="SvgjsPolyline8242" points="292.58,368.8 345.43,340.93 389.48,300.29 432.32,258.28 476.3,217.47 566.53,138.37" fill="none" stroke="#aca7fb" stroke-width="1"/><polyline id="SvgjsPolyline8243" points="336.75,370.16 465.18,244.05 509.2,203.28 599.2,123.92" fill="none" stroke="#aca7fb" stroke-width="1"/><polyline id="SvgjsPolyline8244" points="3.85,386.62 63.74,387.43 122.41,399.7 236.51,436.81 294.99,449.26 353.85,439.65 406.72,411.64 453.41,374.03 496.87,332.67 581.95,248.05" fill="none" stroke="#aca7fb" stroke-width="1"/><polyline id="SvgjsPolyline8245" points="3.33,273.37 63.11,276.72 121.06,292.06 178.4,309.6 237.14,306.73 279.17,265.32 327.96,231.76 380.62,203.25 430.25,169.55 478.9,134.44 575.02,62.6" fill="none" stroke="#aca7fb" stroke-width="1"/><polyline id="SvgjsPolyline8246" points="40.59,348.35 155.08,384.21 214,395.38 273.25,388.55 348.23,295.3 391.93,254.2 437.21,214.84 576.08,100.32" fill="none" stroke="#aca7fb" stroke-width="1"/><polyline id="SvgjsPolyline8247" points="22.57,345.01 80.29,361.25 137.28,380.02 195.52,394.35 255.28,396.22 278.6,342.19 316.29,296.99 409.08,220.89 596.72,71.26" fill="none" stroke="#aca7fb" stroke-width="1"/><polyline id="SvgjsPolyline8248" points="6.12,414.61 66.03,413.87 125.06,424.23 182.56,441.33 239.48,460.29 298.3,470.83 357.24,461.25 411.04,435.02 459.03,399.09 503.36,358.66 588.58,274.18" fill="none" stroke="#aca7fb" stroke-width="1"/><polyline id="SvgjsPolyline8249" points="1.92,245.32 61.77,247.44 119.93,261.9 177.19,279.71 236.17,278.36 286.09,245.85 340.99,222.24 392.85,192.18 442.35,158.28" fill="none" stroke="#aca7fb" stroke-width="1"/><polyline id="SvgjsPolyline8250" points="28.69,250.14 85.97,267.92 144.3,280.99 201.88,268.08 313.95,225.86 368.82,202.13 419.47,169.99 468.65,135.62 565.35,64.56" fill="none" stroke="#aca7fb" stroke-width="1"/><polyline id="SvgjsPolyline8251" points="28.68,316.12 143.34,351.4 200.9,368.18 260.48,371.03" fill="none" stroke="#aca7fb" stroke-width="1"/><polyline id="SvgjsPolyline8252" points="8.87,442.55 68.75,440.01 128.15,447.97 186.18,463.16 243.53,480.79 302.7,489.2 361.63,479.18 415.91,453.92 464.77,419.19 509.83,379.59 595.46,295.53" fill="none" stroke="#aca7fb" stroke-width="1"/><polyline id="SvgjsPolyline8253" points="0.08,217.3 59.98,217.52 118.54,230.18 175.65,248.53 234.88,253.52 290.99,233.06 348.03,215.21 399.68,184.75 449.19,150.86 497.86,115.78 594.1,44.1" fill="none" stroke="#aca7fb" stroke-width="1"/><polyline id="SvgjsPolyline8254" points="29.39,222.07 88.88,228.89 146.32,246.13" fill="none" stroke="#aca7fb" stroke-width="1"/><polyline id="SvgjsPolyline8255" points="204.29,240.1 263.62,236.14 321.33,219.76 375.74,194.98" fill="none" stroke="#aca7fb" stroke-width="1"/><polyline id="SvgjsPolyline8256" points="6.66,184.25 65.35,196.28 122.44,214.69 181.46,223.52 241.2,219.35 298.86,204.71 352.45,177.86 455.02,115.6 504.94,82.33 554.13,47.96" fill="none" stroke="#aca7fb" stroke-width="1"/><polyline id="SvgjsPolyline8257" points="29.8,288.06 88.95,297.44 146.14,315.55 204.46,328.84 259,309.62 291.54,259.82" fill="none" stroke="#aca7fb" stroke-width="1"/><polyline id="SvgjsPolyline8258" points="12.16,470.44 71.95,466 131.66,471.14 190.29,483.79 248.26,499.27 307.71,505.63 366.57,495.01 421.13,470.31 470.61,436.46 516.28,397.57 559.8,356.27" fill="none" stroke="#aca7fb" stroke-width="1"/><polyline id="SvgjsPolyline8259" points="35.77,171.04 93.65,186.65 151.05,203.96 210.55,209.62 270.1,206.6 325.88,184.98 378.44,156.09 429.27,124.22 479.11,90.83 577.19,21.68" fill="none" stroke="#aca7fb" stroke-width="1"/><polyline id="SvgjsPolyline8260" points="3.91,156.3 63.74,152.46 123.25,159.27 238.27,193.26" fill="none" stroke="#aca7fb" stroke-width="1"/><polyline id="SvgjsPolyline8261" points="53.43,135.97 111.59,150.5 168.69,168.88 227.37,181.04 286.5,173.92 397.79,129.55 450.23,100.43 500.97,68.42 550.75,34.93 599.95,0.59" fill="none" stroke="#aca7fb" stroke-width="1"/><polyline id="SvgjsPolyline8262" points="93.65,311.39 152.2,323.42 259.83,278.17 305.35,239.7 359.84,214.85 410.36,182.5 459.36,147.88 555.78,76.45" fill="none" stroke="#aca7fb" stroke-width="1"/><polyline id="SvgjsPolyline8263" points="44.61,585.12 104.24,578.58 164.18,576.2 224.17,576.59 283.99,573.3 341.8,557.65 395.69,531.42 445.24,497.65 491.31,459.23 579.08,377.41" fill="none" stroke="#aca7fb" stroke-width="1"/><polyline id="SvgjsPolyline8264" points="20.21,122.56 79.79,128.88 194.67,163.36 253.86,170.43 311.76,155.62 420.87,105.9 472.9,76.04 523.52,43.84 573.3,10.34" fill="none" stroke="#aca7fb" stroke-width="1"/><polyline id="SvgjsPolyline8265" points="52.17,107.92 112.1,106.23 171.51,114.06 229.29,130.15 287.56,143.79 346.92,137.5 402.68,115.58 455.39,86.95 506.39,55.35 556.4,22.21" fill="none" stroke="#aca7fb" stroke-width="1"/><polyline id="SvgjsPolyline8266" points="40.28,557.37 99.68,548.93 159.56,545.62 219.48,548.3 279.21,553.93" fill="none" stroke="#aca7fb" stroke-width="1"/><polyline id="SvgjsPolyline8267" points="346.24,585.38 404.23,570.3 458.85,545.6 509.74,513.88 557.4,477.46" fill="none" stroke="#aca7fb" stroke-width="1"/><polyline id="SvgjsPolyline8268" points="304.9,597.19 362.03,579.12 415.43,551.89 464.95,518.06 511.3,479.97 555.52,439.43 598.56,397.63" fill="none" stroke="#aca7fb" stroke-width="1"/><polyline id="SvgjsPolyline8269" points="16.56,94.71 76.09,87.33 136.03,86.13 195.53,93.45 253.83,107.6 313.38,112.66 371.9,100.19 427.1,76.79 479.85,48.21 531.1,17.01" fill="none" stroke="#aca7fb" stroke-width="1"/><polyline id="SvgjsPolyline8270" points="25.32,101.04 85.17,104.12 201.71,132.34 258.85,150.58" fill="none" stroke="#aca7fb" stroke-width="1"/><polyline id="SvgjsPolyline8271" points="35.81,529.65 95.39,522.72 155.35,522.78 214.97,529.34 274.3,538.24 334.13,537.19 392.04,521.96" fill="none" stroke="#aca7fb" stroke-width="1"/><polyline id="SvgjsPolyline8272" points="12.28,66.96 71.59,57.92 131.29,52.07 191.26,51.62 251,56.97 310.78,61.01 369.88,51.42 426.41,31.44 480.53,5.58" fill="none" stroke="#aca7fb" stroke-width="1"/><polyline id="SvgjsPolyline8273" points="31.53,501.9 91.29,496.96 151.13,500.46 210.26,510.59 269.04,522.51 328.86,522.79 386.83,507.88 440.4,481.05 489.4,446.48 535,407.51 578.61,366.3" fill="none" stroke="#aca7fb" stroke-width="1"/><polyline id="SvgjsPolyline8274" points="7.81,39.24 126.45,21.27 186.14,15.22 246.05,12.01 306.03,10.44 365.51,3.24" fill="none" stroke="#aca7fb" stroke-width="1"/><polyline id="SvgjsPolyline8275" points="302.76,46.26 360.16,28.95 415.4,5.6" fill="none" stroke="#aca7fb" stroke-width="1"/><polyline id="SvgjsPolyline8276" points="3.68,11.47 63.08,3.01" fill="none" stroke="#aca7fb" stroke-width="1"/></g></svg>